PathFileType	4	(X/Y/Z)	Patient5_TMGait_0pt45_1_right_08.trc.trc
DataRate	CameraRate	NumFrames	NumMarkers	Units	OrigDataRate	OrigDataStartFrame	OrigNumFrames
57.377049180328	57.377049180328	4	32	mm	57.377049180328	124	       141
Frame#	Time	R.ASIS			L.ASIS			Chest			R.Shoulder			Neck			L.Shoulder			L.Elbow			L.Wrist			R.Elbow			R.Wrist			L.Thigh.Superior			L.Thigh.Lateral			L.Thigh.Inferior			L.Patella			L.Shank.Superior			L.Shank.Lateral			L.Shank.Inferior			L.Heel			L.Midfoot.Lateral			L.Midfoot.Superior			L.Toe			R.Thigh.Superior			R.Thigh.Lateral			R.Thigh.Inferior			R.Patella			R.Shank.Superior			R.Shank.Lateral			R.Shank.Inferior			R.Heel			R.Midfoot.Lateral			R.Midfoot.Superior			R.Toe			
		X1	Y1	Z1	X2	Y2	Z2	X3	Y3	Z3	X4	Y4	Z4	X5	Y5	Z5	X6	Y6	Z6	X7	Y7	Z7	X8	Y8	Z8	X9	Y9	Z9	X10	Y10	Z10	X11	Y11	Z11	X12	Y12	Z12	X13	Y13	Z13	X14	Y14	Z14	X15	Y15	Z15	X16	Y16	Z16	X17	Y17	Z17	X18	Y18	Z18	X19	Y19	Z19	X20	Y20	Z20	X21	Y21	Z21	X22	Y22	Z22	X23	Y23	Z23	X24	Y24	Z24	X25	Y25	Z25	X26	Y26	Z26	X27	Y27	Z27	X28	Y28	Z28	X29	Y29	Z29	X30	Y30	Z30	X31	Y31	Z31	X32	Y32	Z32	

124	14.993714285714	1032.160034171354	979.606348923217	571.713335147784	1014.844719550631	953.046061136095	330.373955696095	1071.565240598540	1433.800490340096	454.185859919832	967.456366253226	1494.957969542970	620.194490592080	944.970945614039	1553.154801004273	436.382094989279	1006.971959178838	1495.579318750408	256.292879953266	937.386052197892	1180.841518236303	119.899234662093	1041.468426110360	909.750392887311	125.699941888416	882.000152380777	1177.377094710810	762.121317913343	1100.363577220960	998.270050447102	693.277620539247	990.949114843271	725.568196937884	328.454942063097	896.677546006776	671.941052172556	293.479187612522	955.170309476779	599.029730414109	350.202149611483	916.723240099738	482.570055955976	354.272192977920	849.461509053561	395.133446532467	380.001547936720	759.222042722850	346.788884734039	309.914448603750	790.941915252971	282.958162395335	393.059844754320	610.924449839500	66.755475276114	398.980698244540	700.310954993323	34.769073392291	344.183840973544	798.420057489376	90.710921996134	388.871696297735	900.065860594013	44.424926019258	402.248109735970	1082.019770651556	754.614175217439	601.102734453593	1014.530313675622	665.320578990622	657.900466446322	1102.096432383216	627.302906480360	582.773112457568	1122.194583026663	530.831106939661	616.145417572505	1089.236961547509	424.590116201674	579.591913000412	1020.551521996700	351.575964869334	660.169047757907	1080.804688786486	284.349581473425	579.710765166963	973.674915052252	56.661083305426	550.388305644327	1053.750322103846	25.705824272627	621.284621606322	1157.689871338640	93.581293761890	602.728767403075	1261.892147258334	52.178846499043	599.551452141003	
125	15.011142857143	1034.332847683682	977.377369835556	574.982151731402	1015.959533619471	951.839538752263	333.724059800916	1073.200101765944	1432.495477104261	458.644606243296	970.236791483216	1492.842865467031	625.657373634254	946.242222287643	1551.804496600218	442.101308009090	1006.447504047172	1494.715896637410	261.274313932797	932.077260633119	1181.561308823019	124.116075781436	1032.204642017035	908.827045474585	127.201190712455	886.606892843774	1174.086093880800	766.396709900871	1104.409118918771	995.268520019228	695.111114576273	991.972287212239	724.567991087788	330.900069171829	897.704783953934	671.069183587796	295.571683464723	956.285614609668	597.927087874646	351.941530170688	917.014869833038	479.818286236648	355.177329575500	847.957354686180	393.686779598494	380.631553401483	756.653024135103	347.350952235604	310.466768580782	787.152043991967	283.029986333493	393.880300980526	603.498708179355	68.792612175688	398.697568502975	692.748091203610	35.794071329063	344.026255081610	791.305712766734	90.886647196727	388.580096931413	892.280736619307	44.458600365038	402.174716913100	1081.722634573978	751.281712421539	602.936214076458	1013.261161190196	662.332302386208	658.833532727543	1100.403138051723	623.969946024523	583.322566807154	1119.461367398603	526.906391308756	615.481283172158	1085.260157641323	421.244048852241	578.365801232477	1016.621509653841	348.503187126738	658.999609235979	1075.525605826632	281.193632933661	577.618987099652	965.756692523486	54.489270756098	547.802727992272	1045.397844654171	24.661163981562	619.541665430121	1150.104245531454	90.699007059207	598.771659838311	1253.916552701867	48.040126707146	596.820701454864	
126	15.028571428571	1036.246461251478	975.718978365324	578.396883322036	1017.072105005746	951.048840908950	337.302594195115	1075.134455501838	1431.586703752272	463.247154279584	973.347180700967	1491.230389925279	631.180306998877	947.955595100406	1550.970823694587	447.847955788386	1006.374807289021	1494.306042987908	266.369983301326	926.989189126350	1182.685224647391	128.920640470141	1023.249540096947	908.459900157179	129.113005785474	891.624729672733	1171.334963595488	770.807011532791	1108.545931126340	992.449298161231	697.055872892166	993.793677613584	723.960790564278	333.693548922485	899.919183511964	670.248820228555	297.721910223638	958.766750139305	597.067236742713	353.866142352669	919.067003324638	476.833210940232	355.992670944060	847.878004795289	392.173449927443	381.107565308306	755.491215974462	348.096834153668	310.797711881789	784.435376706692	283.306877029358	394.627452459097	596.444083475298	71.862264678537	398.322531088119	685.398966288452	37.296669094342	343.859727654036	784.713394801058	91.096519662167	388.162849306107	884.611392182794	44.461228913274	402.130444098603	1081.822190333995	749.174156531974	604.819880232206	1013.053334945833	660.467497068215	660.290744206256	1099.753465477620	621.957452323828	584.331672188355	1118.014207640674	524.288763917541	615.403966739811	1082.245844103729	418.945381477685	577.982521870094	1013.776791156201	346.654936970895	658.889401337502	1070.925178540471	279.137825496638	576.435010861851	958.063146387843	53.296360047645	546.233757814207	1037.412208113064	24.418589851529	618.612077330770	1142.702291079128	88.988648712380	595.931852868818	1246.201917097321	45.379201128106	594.932820997730	
127	15.046000000000	1037.822546176302	974.616863000186	581.959559770875	1018.082323528170	950.780785224934	341.070581747959	1077.335811341756	1431.131925866157	467.949272682242	976.750108905033	1490.218903070014	636.700025532160	950.078964321475	1550.711663564140	453.573045093016	1006.819609393592	1494.443848154762	271.540018282468	922.171264142596	1184.327526524296	134.265552406626	1014.649374356090	908.749488213324	131.471220926521	896.960990980704	1169.306160702766	775.379389672953	1112.742473940206	990.073789554417	699.111981294657	996.447660650185	723.831663176444	336.626801983073	903.368471242468	669.538762764211	299.757706431587	962.761542809493	596.516310516047	355.713241054168	923.170886017473	473.726685394334	356.408883800124	849.513916782090	390.649297491181	381.187148827555	755.988402111376	349.119075688679	310.724889772653	783.067892183686	283.861155077172	395.049985348357	589.964706556790	76.350019806101	397.745451989328	678.335135480175	39.450616973413	343.635435956985	778.785068549953	91.347701623929	387.521738963619	877.037672772577	44.411287740980	402.117356338354	1082.311250289964	748.146008850560	607.060687718787	1013.559213622739	659.573200179724	662.308194297307	1100.029963591059	621.053213634402	586.097961006034	1117.502949900347	522.754899589145	616.232443780293	1079.976815296977	417.556349985986	578.575026603328	1011.573380552777	345.854383639632	659.805258537988	1066.806076362955	278.026777928798	576.261177416613	950.512978384317	52.930191101524	545.572286233056	1029.691912501293	24.653279056819	618.342169140049	1135.388861339884	88.183146396015	594.300970188827	1238.652147616802	43.949475677233	593.892170252655	
